<?xml version="1.0" encoding="utf-8"?>
<!-- Generator: Adobe Illustrator 18.1.1, SVG Export Plug-In . SVG Version: 6.00 Build 0)  -->
<!DOCTYPE svg PUBLIC "-//W3C//DTD SVG 1.1//EN" "http://www.w3.org/Graphics/SVG/1.1/DTD/svg11.dtd">
<svg version="1.1" id="Layer_1" xmlns="http://www.w3.org/2000/svg" xmlns:xlink="http://www.w3.org/1999/xlink" x="0px" y="0px"
	 viewBox="0 0 360 360" enable-background="new 0 0 360 360" xml:space="preserve">
<g>
	<rect x="106.2" y="12" fill="#FFFFFF" width="148.4" height="220"/>
	<g>
		<g>
			<g>
				<circle fill="#4C4C4C" cx="180.6" cy="73.4" r="9.8"/>
				<path fill="#4C4C4C" d="M99.9,7v231.2h161.6V7H99.9z M220.1,96.1h1.1h0.5h1.1V147h-1.1h-0.5h-1.1V96.1z M213.8,45.6
					C213.9,45.6,213.9,45.6,213.8,45.6C213.9,45.6,213.9,45.6,213.8,45.6c0.1-0.1,0.1,0,0.2,0l0,0l0,0c0,0,0,0.1,0.1,0.1
					c0,0,0,0-0.1,0.1l0,0l0,0l0,0v0.1c-0.1,0.1-0.2,0.3-0.2,0.5c-0.9,2.6-1.7,5.2-2.5,7.8v0.5l0,0h-5l0,0c-0.1-0.2-0.1-0.4-0.2-0.6
					l0,0c-0.8-2.9-1.7-5.8-2.6-8.7C206.8,44.9,210.4,45,213.8,45.6z M213.1,57.3v9h-9v-9C204.1,57.3,213.1,57.3,213.1,57.3z
					 M177.7,15.9h7.2v36.8h-7.2V15.9z M160.8,57.3h39.6v32.2h-39.6L160.8,57.3L160.8,57.3z M111.7,147.4h-1.1h-0.5H109V96.6h1.1h0.5
					h1.1V147.4z M115.6,151.2v-4.6V96.8v-4.6h6.6l0,0h14.3h2.3h0.8h0.3h0.6l0,0h1.1v19.6c-0.3,0-0.5,0-0.8,0c-0.4,0-0.9,0-1.3,0
					c-0.2,0-0.4,0-0.5,0v-11.2v-5.8h-5.2h-4.7c0,2,0,4.1,0,6.1c0,4.6,0,9.2,0,13.8v29c0,1.5-0.1,2.9-0.1,4.4c0,0.1,0,0.2,0,0.3h9.8
					c0.1-0.1,0.1-0.2,0.1-0.3v-16.2c0.1,0,0.2,0,0.4,0v-0.1h1.3c0.3,0,0.7,0,1,0V151h-0.4h-0.7H140h-1.1h-2.2h-0.1l0,0h-16.3l0,0
					h-4.7C115.6,151,115.6,151.2,115.6,151.2z M186.4,161h-11.5v-0.2l0,0v-2.7l0,0v-1.7l0,0v-1.8l0,0h11.4l0,0L186.4,161L186.4,161z
					 M227.3,229.3h-12l-0.1-0.4l0,0l-0.7-2.2l0,0l-33.8-106.9v0.1v0.1l0,0l-34.6,109.3h-12v-3.8l39.8-126l0,0l0.6-1.8v0.1v-0.1v-2.5
					H187v2.5l40.4,127.8L227.3,229.3L227.3,229.3z M252.4,151.1L252.4,151.1h-1.1h-0.5h-0.2h-0.9v-28.4h-10v26.9v1.4h-6.3h-2h-4.6
					v-4.6V96.7v-4.6h4.6h2h0.1l0,0h19l0,0l0,0v59H252.4z"/>
				<rect x="239.7" y="94.8" fill="#4C4C4C" width="10" height="25.3"/>
				<polygon fill="#262626" points="180.7,120 180.7,119.9 180.6,120 				"/>
				<polygon fill="#262626" points="174.4,97.7 173.8,99.5 173.9,99.5 174.4,97.9 				"/>
				<rect x="211.1" y="54.3" fill="#262626" width="0" height="0.5"/>
				<path fill="#262626" d="M140.5,132.1h0.1h-1.3v0.1C139.7,132.1,140.1,132.1,140.5,132.1L140.5,132.1z"/>
				<path fill="#262626" d="M138.9,148.3c0,0.1-0.1,0.2-0.1,0.3h0.1V148.3z"/>
				<path fill="#262626" d="M139.4,111.9c0.4,0,0.9,0,1.3,0c-0.2,0-0.4,0-0.5,0C140,111.8,139.7,111.9,139.4,111.9z"/>
			</g>
		</g>
		<g>
			<path fill="#4C4C4C" d="M112.7,297.7c0,1.9-0.6,3.7-1.7,5.2c-1.3,1.6-2.9,2.5-4.8,2.5s-3.5-0.8-4.8-2.5c-1.1-1.5-1.7-3.3-1.7-5.2
				v-36.9c0-2,0.6-3.7,1.7-5.2c1.2-1.7,2.8-2.5,4.8-2.5s3.6,0.8,4.8,2.5c1.1,1.5,1.7,3.2,1.7,5.2v5.5h-3.2v-5.5c0-1.1-0.3-2.1-0.8-3
				c-0.6-1-1.4-1.6-2.5-1.6c-1,0-1.9,0.5-2.5,1.6c-0.5,0.9-0.8,1.9-0.8,3v36.9c0,1.1,0.3,2.1,0.8,3c0.6,1,1.4,1.6,2.5,1.6
				c1,0,1.9-0.5,2.5-1.6c0.5-0.9,0.8-1.8,0.8-3v-5.5h3.2V297.7z"/>
			<path fill="#4C4C4C" d="M138.3,305.1h-3.2v-24.3h-6.5v24.3h-3.2v-51.8h3.2v24.3h6.5v-24.3h3.2V305.1z"/>
			<path fill="#4C4C4C" d="M166.7,305.1h-3.4l-1.2-9.7H155l-1.1,9.7h-3.4l6.3-51.8h3.4L166.7,305.1z M161.8,292.2l-3.2-26.7
				l-3.2,26.7H161.8z"/>
			<path fill="#4C4C4C" d="M191.9,305.1h-3.2v-19.8c0-1.1-0.3-2.1-0.8-3c-0.6-1-1.4-1.6-2.5-1.6h-3.2V305H179v-51.8h6.4
				c1.9,0,3.6,0.8,4.8,2.5c1.1,1.5,1.7,3.3,1.7,5.2v10.7c0,1.6-0.4,3.1-1.2,4.6c-0.8,1.4-1.9,2.4-3.3,2.9c1.4,0.5,2.5,1.5,3.3,2.9
				s1.2,2.9,1.2,4.6V305.1z M188.7,273v-12c0-1.1-0.3-2.1-0.8-3c-0.6-1-1.4-1.6-2.5-1.6h-3.2v21.1h3.2c1,0,1.9-0.5,2.5-1.6
				C188.4,275.2,188.7,274.2,188.7,273z"/>
			<path fill="#4C4C4C" d="M215.7,305.1h-11v-51.8h3.2v48.5h7.8V305.1z"/>
			<path fill="#4C4C4C" d="M238.5,305.1h-11v-51.8h11v3.2h-7.7v21.1h6.4v3.2h-6.4v21.1h7.7V305.1z"/>
			<path fill="#4C4C4C" d="M261,297.7c0,2-0.6,3.7-1.7,5.2c-1.3,1.6-2.9,2.5-4.8,2.5c-1.9,0-3.5-0.8-4.8-2.5
				c-1.1-1.5-1.7-3.3-1.7-5.2v-5.5h3.3v5.5c0,1.1,0.3,2.1,0.8,3c0.6,1,1.4,1.6,2.5,1.6c1,0,1.9-0.5,2.5-1.6c0.5-0.9,0.8-1.9,0.8-3
				v-5.8c0-2.9-0.8-5.8-2.5-8.6c-1.6-2.3-3.1-4.7-4.7-7.1c-1.7-2.9-2.5-6.1-2.5-9.6v-5.8c0-2,0.6-3.7,1.7-5.2
				c1.2-1.7,2.8-2.5,4.8-2.5c1.9,0,3.5,0.8,4.8,2.5c1.1,1.5,1.7,3.2,1.7,5.2v5.5h-3.3v-5.5c0-1.1-0.3-2.1-0.8-3
				c-0.6-1-1.4-1.6-2.5-1.6c-1,0-1.9,0.5-2.5,1.6c-0.5,0.9-0.8,1.9-0.8,3v5.8c0,2.9,0.8,5.8,2.5,8.6c1.5,2.3,3.1,4.7,4.7,7.1
				c1.7,2.9,2.5,6.1,2.5,9.6V297.7z"/>
		</g>
		<g>
			<path fill="#4C4C4C" d="M111.9,315.2h5.8l16.2,37.8h-7.7l-3.5-8.6h-16.3L103,353h-7.6L111.9,315.2z M120.4,338.6l-5.8-15.4
				l-5.9,15.4H120.4z"/>
			<path fill="#4C4C4C" d="M139,315.2h6.7v31.7h16.1v6.1H139V315.2z"/>
			<path fill="#4C4C4C" d="M167.6,315.2h6.7v31.7h16.1v6.1h-22.8V315.2z"/>
			<path fill="#4C4C4C" d="M196.1,315.2h25v6.1h-18.3v9.3h17.3v6.1h-17.3v10.2h19.3v6.1h-26C196.1,353,196.1,315.2,196.1,315.2z"/>
			<path fill="#4C4C4C" d="M229.5,315.2h8.9l18.3,28.1h0.1v-28.1h6.7V353H255l-18.7-29h-0.1v29h-6.7V315.2z"/>
		</g>
	</g>
</g>
</svg>
