<?xml version="1.0" encoding="utf-8"?>
<!-- Generator: Adobe Illustrator 18.1.1, SVG Export Plug-In . SVG Version: 6.00 Build 0)  -->
<!DOCTYPE svg PUBLIC "-//W3C//DTD SVG 1.1//EN" "http://www.w3.org/Graphics/SVG/1.1/DTD/svg11.dtd">
<svg version="1.1" id="Layer_1" xmlns="http://www.w3.org/2000/svg" xmlns:xlink="http://www.w3.org/1999/xlink" x="0px" y="0px"
	 viewBox="0 0 604.8 842.4" enable-background="new 0 0 604.8 842.4" xml:space="preserve">
<path fill="#643B0F" d="M604.8,421.2c0,167-135.4,302.4-302.4,302.4C135.4,723.6,0,588.2,0,421.2c0-167,135.4-302.4,302.5-302.4
	C469.4,118.8,604.8,254.2,604.8,421.2z"/>
<path fill="#FFFFFF" d="M252,610.2h75.6c0,0,0-104.4,0-189h56.1l6.9-75.6h-60.1v-30.2c0-14.7,9.8-18.2,16.7-18.2s42.4,0,42.4,0
	v-64.8l-58.4-0.2c-64.8,0-79.6,48.3-79.6,79.2v34.2h-37.5v75.6H252C252,506.9,252,610.2,252,610.2z"/>
<g id="Layer_1_1_">
</g>
</svg>
