<?xml version="1.0" encoding="utf-8"?>
<!-- Generator: Adobe Illustrator 18.1.1, SVG Export Plug-In . SVG Version: 6.00 Build 0)  -->
<!DOCTYPE svg PUBLIC "-//W3C//DTD SVG 1.1//EN" "http://www.w3.org/Graphics/SVG/1.1/DTD/svg11.dtd">
<svg version="1.1" id="Layer_1" xmlns="http://www.w3.org/2000/svg" xmlns:xlink="http://www.w3.org/1999/xlink" x="0px" y="0px"
	 viewBox="0 0 604.8 842.4" enable-background="new 0 0 604.8 842.4" xml:space="preserve">
<circle fill="#643B0F" cx="302.4" cy="421.2" r="302.4"/>
<path fill="#FFFFFF" d="M481,275.6c-15,8.8-31.6,15.1-49.3,18.5c-14.1-14.8-34.3-24.1-56.6-24.1c-42.8,0-77.5,34.2-77.5,76.3
	c0,6,0.7,11.8,2,17.4c-64.4-3.2-121.6-33.6-159.8-79.8c-6.7,11.3-10.5,24.4-10.5,38.4c0,26.5,13.7,49.8,34.5,63.5
	c-12.7-0.4-24.7-3.8-35.1-9.5c0,0.3,0,0.6,0,1c0,37,26.7,67.8,62.2,74.9c-6.5,1.7-13.4,2.7-20.4,2.7c-5,0-9.8-0.5-14.6-1.4
	c9.9,30.3,38.5,52.4,72.4,53c-26.5,20.5-60,32.7-96.3,32.7c-6.3,0-12.4-0.4-18.5-1.1c34.3,21.7,75.1,34.3,118.9,34.3
	c142.7,0,220.7-116.3,220.7-217.2c0-3.3-0.1-6.6-0.2-9.9c15.1-10.8,28.3-24.2,38.7-39.5c-13.9,6.1-28.8,10.2-44.5,12
	C462.9,308.4,475.2,293.4,481,275.6z"/>
<g id="Layer_1_1_">
</g>
</svg>
