<?xml version="1.0" encoding="utf-8"?>
<!-- Generator: Adobe Illustrator 18.1.1, SVG Export Plug-In . SVG Version: 6.00 Build 0)  -->
<!DOCTYPE svg PUBLIC "-//W3C//DTD SVG 1.1//EN" "http://www.w3.org/Graphics/SVG/1.1/DTD/svg11.dtd">
<svg version="1.1" id="Layer_1" xmlns="http://www.w3.org/2000/svg" xmlns:xlink="http://www.w3.org/1999/xlink" x="0px" y="0px"
	 viewBox="0 0 604.8 842.4" enable-background="new 0 0 604.8 842.4" xml:space="preserve">
<circle fill="#643B0F" cx="302.4" cy="421.2" r="302.4"/>
<path fill="#FFFFFF" d="M309,477.3c-10.5,0-18.6-27.4-30.7-75.3c-12.5-49.5-12.4-138.8-64.3-128.7c-48.9,9.6-113.2,85.8-113.2,85.8
	l15.3,20c0,0,31.7-24.8,42.2-12.4c10.6,12.4,50.8,162,64.3,189.6c11.8,24.2,44.1,56.2,79.6,33.4c35.5-22.9,153.5-122.9,174.6-241.1
	c21.1-118.2-142-93.4-159.3,9.5c43.2-25.8,66.2,10.5,44.1,51.5C339.7,450.6,319.5,477.3,309,477.3z"/>
<g id="Layer_1_1_">
</g>
</svg>
