<?xml version="1.0" encoding="utf-8"?>
<!-- Generator: Adobe Illustrator 18.1.1, SVG Export Plug-In . SVG Version: 6.00 Build 0)  -->
<!DOCTYPE svg PUBLIC "-//W3C//DTD SVG 1.1//EN" "http://www.w3.org/Graphics/SVG/1.1/DTD/svg11.dtd">
<svg version="1.1" id="Layer_1" xmlns="http://www.w3.org/2000/svg" xmlns:xlink="http://www.w3.org/1999/xlink" x="0px" y="0px"
	 viewBox="0 0 334.4 184" enable-background="new 0 0 334.4 184" xml:space="preserve">
<g>
	<rect x="0" y="0" fill="#4C4C4C" width="334.4" height="184"/>
	<g>
		<g>
			<path fill="#FCFCFC" d="M134.4,94.9h11.5c1.9,0,3.8,0.3,5.6,0.9c1.8,0.6,3.4,1.5,4.8,2.7c1.4,1.2,2.5,2.7,3.3,4.6
				c0.8,1.8,1.2,4,1.2,6.5c0,2.5-0.5,4.7-1.4,6.5c-1,1.8-2.2,3.3-3.7,4.5c-1.5,1.2-3.2,2.1-5,2.7c-1.8,0.6-3.6,0.9-5.4,0.9h-10.9
				V94.9z M143.5,119.5c1.6,0,3.2-0.2,4.6-0.6c1.4-0.4,2.7-1,3.8-1.7c1.1-0.8,1.9-1.8,2.5-3.1c0.6-1.3,0.9-2.8,0.9-4.6
				c0-1.8-0.3-3.3-0.8-4.5c-0.6-1.3-1.3-2.3-2.3-3.1c-1-0.8-2.1-1.4-3.5-1.7c-1.3-0.4-2.8-0.6-4.4-0.6h-4.8v19.8H143.5z"/>
			<path fill="#FCFCFC" d="M172.6,94.9H192v4.7h-14.2v7.2h13.4v4.7h-13.4v7.9h14.9v4.7h-20.1V94.9z"/>
			<path fill="#FCFCFC" d="M219.1,101.2c-0.6-0.8-1.3-1.4-2.2-1.8c-0.9-0.4-1.9-0.6-2.9-0.6c-0.6,0-1.2,0.1-1.8,0.2
				c-0.6,0.1-1.1,0.4-1.5,0.7c-0.5,0.3-0.8,0.7-1.1,1.2c-0.3,0.5-0.4,1.1-0.4,1.7c0,1,0.3,1.8,1,2.3c0.7,0.5,1.5,1,2.6,1.4
				c1,0.4,2.1,0.8,3.3,1.1c1.2,0.4,2.3,0.9,3.3,1.5c1,0.6,1.9,1.5,2.6,2.5c0.7,1,1,2.4,1,4.2c0,1.6-0.3,2.9-0.9,4.1
				c-0.6,1.2-1.4,2.1-2.3,2.9c-1,0.8-2.1,1.4-3.4,1.7c-1.3,0.4-2.7,0.6-4.1,0.6c-1.8,0-3.6-0.3-5.2-0.9c-1.7-0.6-3.1-1.6-4.3-3.1
				l3.9-3.8c0.6,1,1.5,1.7,2.5,2.3c1,0.5,2.1,0.8,3.3,0.8c0.6,0,1.2-0.1,1.8-0.2c0.6-0.2,1.2-0.4,1.7-0.7c0.5-0.3,0.9-0.8,1.2-1.3
				c0.3-0.5,0.5-1.1,0.5-1.8c0-1.1-0.3-1.9-1-2.5c-0.7-0.6-1.5-1.1-2.6-1.5c-1-0.4-2.1-0.8-3.3-1.1c-1.2-0.4-2.3-0.8-3.3-1.5
				c-1-0.6-1.9-1.4-2.6-2.5c-0.7-1-1-2.4-1-4.2c0-1.5,0.3-2.8,0.9-3.9c0.6-1.1,1.4-2,2.4-2.7c1-0.7,2.2-1.3,3.5-1.6
				c1.3-0.4,2.6-0.5,4-0.5c1.5,0,3,0.2,4.5,0.7c1.4,0.5,2.7,1.2,3.9,2.3L219.1,101.2z"/>
			<path fill="#FCFCFC" d="M235.2,94.9h5.2v29.3h-5.2V94.9z"/>
			<path fill="#FCFCFC" d="M279.7,122c-3.6,1.9-7.6,2.9-12.1,2.9c-2.3,0-4.3-0.4-6.2-1.1c-1.9-0.7-3.5-1.8-4.9-3.1
				c-1.4-1.3-2.4-2.9-3.2-4.8c-0.8-1.9-1.2-4-1.2-6.2c0-2.3,0.4-4.5,1.2-6.4c0.8-1.9,1.8-3.5,3.2-4.9c1.4-1.3,3-2.4,4.9-3.1
				c1.9-0.7,4-1.1,6.2-1.1c2.2,0,4.3,0.3,6.3,0.8c2,0.5,3.7,1.5,5.2,2.9l-3.8,3.9c-0.9-0.9-2.1-1.6-3.4-2.1
				c-1.3-0.5-2.7-0.7-4.2-0.7c-1.5,0-2.9,0.3-4.1,0.8c-1.2,0.5-2.3,1.3-3.2,2.2c-0.9,1-1.6,2.1-2,3.3c-0.5,1.3-0.7,2.6-0.7,4.1
				c0,1.6,0.2,3,0.7,4.3c0.5,1.3,1.2,2.5,2,3.4c0.9,1,1.9,1.7,3.2,2.3c1.2,0.6,2.6,0.8,4.1,0.8c1.3,0,2.6-0.1,3.7-0.4
				c1.2-0.2,2.2-0.6,3.1-1.2v-6.9h-6v-4.7h11.2V122z"/>
			<path fill="#FCFCFC" d="M292.7,94.9h6.9l14.2,21.7h0.1V94.9h5.2v29.3h-6.6L298,101.7h-0.1v22.4h-5.2V94.9z"/>
		</g>
		<g>
			<path fill="#FCFCFC" d="M153.4,64.1c-0.9-0.9-1.9-1.6-3.1-2.2c-1.2-0.5-2.6-0.8-4.2-0.8c-1.6,0-3.1,0.3-4.4,0.9
				c-1.3,0.6-2.4,1.4-3.3,2.4c-0.9,1-1.6,2.2-2.1,3.5s-0.7,2.7-0.7,4.2s0.2,2.9,0.7,4.2c0.5,1.3,1.2,2.5,2.1,3.5
				c0.9,1,2,1.8,3.3,2.4c1.3,0.6,2.8,0.9,4.4,0.9c1.3,0,2.6-0.2,3.8-0.5c1.2-0.3,2.3-0.8,3.2-1.3v-8.5h-6.1v-2.4h8.7v12.5
				c-1.4,0.8-3,1.5-4.7,1.9c-1.7,0.4-3.3,0.7-4.9,0.7c-1.9,0-3.6-0.3-5.3-1c-1.6-0.7-3-1.6-4.2-2.8c-1.2-1.2-2.1-2.6-2.8-4.2
				c-0.7-1.6-1-3.4-1-5.3s0.3-3.7,1-5.3c0.7-1.6,1.6-3,2.8-4.2c1.2-1.2,2.6-2.1,4.2-2.8c1.6-0.7,3.4-1,5.3-1c2,0,3.8,0.3,5.3,0.8
				c1.5,0.6,2.8,1.4,3.9,2.6L153.4,64.1z"/>
			<path fill="#FCFCFC" d="M171.1,84.9h-2.6V59.4h7.8c2.6,0,4.6,0.6,6.1,1.7c1.5,1.1,2.2,2.8,2.2,5.1c0,1.8-0.6,3.3-1.7,4.5
				c-1.1,1.2-2.7,1.9-4.8,2.1l7.3,12.1h-3.2l-7-11.8h-4.3V84.9z M171.1,70.7h4.6c1.1,0,2.1-0.1,2.9-0.4c0.8-0.2,1.4-0.6,1.9-1
				c0.5-0.4,0.8-0.9,1-1.4c0.2-0.5,0.3-1.1,0.3-1.7c0-0.6-0.1-1.2-0.3-1.7c-0.2-0.5-0.6-1-1-1.4s-1.1-0.7-1.9-1
				c-0.8-0.2-1.8-0.3-2.9-0.3h-4.6V70.7z"/>
			<path fill="#FCFCFC" d="M195.3,84.9h-3l11.1-25.4h2.5l11.1,25.4h-3l-2.8-6.7h-13L195.3,84.9z M199.1,75.8h11l-5.5-13.4
				L199.1,75.8z"/>
			<path fill="#FCFCFC" d="M226.3,59.4h7.4c2.6,0,4.6,0.6,6.1,1.7c1.5,1.1,2.2,2.8,2.2,5.1c0,2.3-0.7,4-2.2,5.1
				c-1.5,1.1-3.5,1.7-6.1,1.7h-4.8v11.8h-2.6V59.4z M228.9,70.7h4.2c1.1,0,2.1-0.1,2.9-0.4c0.8-0.2,1.4-0.6,1.9-1
				c0.5-0.4,0.8-0.9,1-1.4c0.2-0.5,0.3-1.1,0.3-1.7c0-0.6-0.1-1.2-0.3-1.7c-0.2-0.5-0.6-1-1-1.4c-0.5-0.4-1.1-0.7-1.9-1
				c-0.8-0.2-1.8-0.3-2.9-0.3h-4.2V70.7z"/>
			<path fill="#FCFCFC" d="M252.9,59.4h2.6v11h13.9v-11h2.6v25.4h-2.6v-12h-13.9v12h-2.6V59.4z"/>
			<path fill="#FCFCFC" d="M287.3,84.9h-2.6V59.4h2.6V84.9z"/>
			<path fill="#FCFCFC" d="M321.1,80.8c-0.4,0.6-1,1.3-1.6,1.8c-0.6,0.6-1.4,1.1-2.2,1.5c-0.8,0.4-1.7,0.7-2.6,1
				c-0.9,0.2-1.9,0.4-3,0.4c-1.9,0-3.6-0.3-5.3-1c-1.6-0.7-3-1.6-4.2-2.8s-2.1-2.6-2.8-4.2c-0.7-1.6-1-3.4-1-5.3s0.3-3.7,1-5.3
				c0.7-1.6,1.6-3,2.8-4.2s2.6-2.1,4.2-2.8c1.6-0.7,3.4-1,5.3-1c1.6,0,3.2,0.3,4.7,0.9c1.6,0.6,2.9,1.7,4.1,3.1l-2.3,1.7
				c-0.3-0.4-0.6-0.8-1.1-1.2c-0.5-0.4-1-0.8-1.6-1.1c-0.6-0.3-1.2-0.6-1.9-0.8c-0.7-0.2-1.3-0.3-2-0.3c-1.6,0-3.1,0.3-4.4,0.9
				c-1.3,0.6-2.4,1.4-3.3,2.4c-0.9,1-1.6,2.2-2.1,3.5s-0.7,2.7-0.7,4.2s0.2,2.9,0.7,4.2c0.5,1.3,1.2,2.5,2.1,3.5
				c0.9,1,2,1.8,3.3,2.4c1.3,0.6,2.8,0.9,4.4,0.9c0.7,0,1.3-0.1,2-0.2c0.7-0.1,1.3-0.3,1.9-0.6c0.6-0.3,1.2-0.7,1.8-1.2
				c0.6-0.5,1.1-1.1,1.6-1.8L321.1,80.8z"/>
		</g>
	</g>
	<polygon fill="#262626" points="78.6,80.5 78.4,80.2 78.6,80.5 	"/>
	<polygon fill="#F9F9F9" points="83,90.6 81.9,88.1 76.6,93.4 	"/>
	<g>
		<rect x="18.4" y="12.8" fill="#FCFCFC" width="103.1" height="158.2"/>
		<g>
			<polygon fill="#4C4C4C" points="88.2,127.5 88.1,131.1 88.3,135.1 101.4,151.8 104.9,149.9 98.7,129.4 97.3,128 93.3,125.1 
				93.7,132.3 			"/>
			<polygon fill="#4C4C4C" points="101.8,153.3 107.9,160.4 105.6,151.2 105.4,151.3 101.9,153.2 			"/>
			<polygon fill="#4C4C4C" points="35.9,41.1 29.4,29.4 39.9,23.6 46.4,35.3 			"/>
			<polygon fill="#4C4C4C" points="72.2,105.8 72.2,105.8 86.5,131.3 86.4,131.2 86.2,127.2 86,123.3 86.3,123.5 91.9,128.4 
				91.4,121.1 91.4,120.4 95.4,124.1 96.8,125.4 97,125.6 85,104.1 85,104.1 82.6,99.8 70.4,77.8 48.4,38.4 37.9,44.1 57.6,79.5 
				66.6,95.7 			"/>
		</g>
	</g>
</g>
</svg>
