<?xml version="1.0" encoding="utf-8"?>
<!-- Generator: Adobe Illustrator 18.1.1, SVG Export Plug-In . SVG Version: 6.00 Build 0)  -->
<!DOCTYPE svg PUBLIC "-//W3C//DTD SVG 1.1//EN" "http://www.w3.org/Graphics/SVG/1.1/DTD/svg11.dtd">
<svg version="1.1" id="Layer_1" xmlns="http://www.w3.org/2000/svg" xmlns:xlink="http://www.w3.org/1999/xlink" x="0px" y="0px"
	 viewBox="0 0 873 480" enable-background="new 0 0 873 480" xml:space="preserve">
<g>
	<rect x="0.3" y="0" fill="#4C4C4C" width="872.3" height="480"/>
	<g>
		<rect x="378.8" y="229.3" fill="none" width="431.7" height="106.7"/>
		<g enable-background="new    ">
			<path fill="#FCFCFC" d="M378.5,252.9h16l21.3,59.1l22-59.1h15l-31.6,78.3h-12L378.5,252.9z"/>
			<path fill="#FCFCFC" d="M479.2,252.9h13.9v78.3h-13.9V252.9z"/>
			<path fill="#FCFCFC" d="M528.5,252.9h30.8c5.2,0,10.1,0.8,14.9,2.4c4.8,1.6,9,4,12.7,7.2c3.7,3.2,6.6,7.3,8.8,12.2
				c2.2,4.9,3.3,10.7,3.3,17.3c0,6.7-1.3,12.5-3.8,17.4c-2.5,4.9-5.8,9-9.8,12.2c-4,3.2-8.5,5.6-13.4,7.2c-4.9,1.6-9.7,2.4-14.4,2.4
				h-29.2V252.9z M552.8,318.6c4.3,0,8.5-0.5,12.3-1.5c3.9-1,7.2-2.5,10.1-4.6c2.9-2.1,5.1-4.8,6.8-8.2c1.7-3.4,2.5-7.4,2.5-12.2
				c0-4.7-0.7-8.8-2.2-12.2c-1.5-3.4-3.5-6.1-6.1-8.2c-2.6-2.1-5.7-3.6-9.3-4.6c-3.6-1-7.5-1.5-11.8-1.5h-12.7v53.1H552.8z"/>
			<path fill="#FCFCFC" d="M630.6,252.9h51.8v12.6h-37.9v19.2h35.9v12.6h-35.9v21.2h39.9v12.6h-53.8V252.9z"/>
			<path fill="#FCFCFC" d="M712.2,292.4c0-6.3,1-12,3.1-17.1c2.1-5.1,4.9-9.5,8.6-13.1c3.6-3.6,8-6.4,13-8.3c5-2,10.6-2.9,16.6-2.9
				c6.1-0.1,11.7,0.8,16.8,2.7c5.1,1.9,9.5,4.6,13.2,8.2c3.7,3.6,6.6,8,8.6,13c2.1,5.1,3.1,10.8,3.1,17c0,6.1-1,11.7-3.1,16.7
				c-2.1,5-4.9,9.3-8.6,12.9c-3.7,3.6-8.1,6.4-13.2,8.5c-5.1,2-10.7,3.1-16.8,3.1c-6,0-11.6-1-16.6-2.9c-5-2-9.4-4.7-13-8.3
				c-3.6-3.6-6.5-7.9-8.6-12.9C713.2,304,712.2,298.5,712.2,292.4z M726.8,291.5c0,4.2,0.6,8.1,1.9,11.6c1.3,3.5,3.1,6.6,5.5,9.2
				c2.4,2.6,5.2,4.6,8.5,6.1c3.3,1.5,6.9,2.2,11,2.2c4.1,0,7.7-0.7,11.1-2.2c3.3-1.5,6.2-3.5,8.5-6.1c2.4-2.6,4.2-5.6,5.5-9.2
				c1.3-3.5,1.9-7.4,1.9-11.6c0-3.9-0.6-7.6-1.9-10.9c-1.3-3.4-3.1-6.4-5.5-8.9c-2.4-2.5-5.2-4.5-8.5-6c-3.3-1.4-7-2.2-11.1-2.2
				c-4.1,0-7.7,0.7-11,2.2c-3.3,1.4-6.1,3.4-8.5,6c-2.4,2.5-4.2,5.5-5.5,8.9C727.4,283.9,726.8,287.6,726.8,291.5z"/>
		</g>
		<rect x="381.2" y="116.1" fill="none" width="429.7" height="149.7"/>
		<g enable-background="new    ">
			<path fill="#FCFCFC" d="M398.3,234.7H391v-71.5h43.1v6.7h-35.9v24.3h33.3v6.7h-33.3V234.7z"/>
			<path fill="#FCFCFC" d="M470,234.7h-7.3v-71.5h7.3V234.7z"/>
			<path fill="#FCFCFC" d="M512.2,228h33.3v6.7h-40.6v-71.5h7.3V228z"/>
			<path fill="#FCFCFC" d="M606.2,221.4l24.1-58.2h11.1v71.5h-7.3v-61.8H634l-25.9,61.8h-3.8l-25.9-61.8h-0.2v61.8H571v-71.5h11.1
				L606.2,221.4z"/>
			<path fill="#FCFCFC" d="M763.8,218.1l16.1,16.6h-10.3l-10.1-10.5c-3,3.8-6.1,6.9-9.5,9c-3.4,2.2-7.5,3.3-12.3,3.3
				c-3,0-5.8-0.5-8.5-1.4s-5.1-2.2-7.2-4c-2.1-1.8-3.7-3.9-4.9-6.4c-1.2-2.5-1.8-5.4-1.8-8.6c0-2.6,0.4-5,1.3-7.2
				c0.9-2.2,2.1-4.1,3.6-5.8c1.5-1.7,3.2-3.2,5.2-4.6c2-1.3,4-2.5,6.2-3.5c-2.2-2.3-4.1-4.8-5.8-7.6c-1.7-2.8-2.6-5.8-2.6-9.1
				c0-2.7,0.5-5.1,1.4-7.2c0.9-2.1,2.2-3.9,3.8-5.3c1.6-1.4,3.5-2.5,5.7-3.3c2.2-0.7,4.5-1.1,7.1-1.1c2.4,0,4.6,0.4,6.7,1.1
				c2.1,0.7,3.9,1.7,5.5,3.1c1.6,1.3,2.8,3,3.7,5c0.9,2,1.4,4.3,1.4,6.9c0,2.4-0.5,4.5-1.4,6.3c-0.9,1.9-2.2,3.5-3.7,5.1
				c-1.5,1.5-3.2,2.9-5.1,4c-1.9,1.2-3.7,2.2-5.6,3.2l16.5,17l9.8-17h8.2L763.8,218.1z M736,199.5c-2.4,1.3-4.4,2.6-6,3.8
				c-1.7,1.2-3,2.4-4,3.7c-1,1.3-1.8,2.7-2.2,4.2c-0.5,1.5-0.7,3.1-0.7,4.9c0,2,0.4,3.9,1.2,5.6c0.8,1.7,1.9,3.1,3.2,4.3
				c1.3,1.2,2.9,2.1,4.6,2.8c1.8,0.7,3.6,1,5.6,1c2,0,3.7-0.3,5.3-0.8c1.6-0.5,3.1-1.3,4.4-2.2c1.4-0.9,2.7-2.1,3.9-3.3
				c1.2-1.3,2.4-2.7,3.5-4.1L736,199.5z M751,177.4c0-2.8-1-5.1-2.9-6.8c-1.9-1.7-4.3-2.6-7-2.6c-3,0-5.6,0.9-7.6,2.8
				c-2.1,1.9-3.1,4.4-3.1,7.7c0,1.2,0.3,2.5,0.9,3.8c0.6,1.3,1.2,2.5,2,3.7c0.8,1.1,1.6,2.2,2.4,3.2c0.8,1,1.6,1.7,2.2,2.2
				c1.3-0.8,2.8-1.6,4.3-2.5c1.5-0.8,3-1.8,4.3-2.9c1.3-1.1,2.4-2.3,3.2-3.7C750.6,180.9,751,179.2,751,177.4z"/>
		</g>
	</g>
	<g>
		<rect x="46" y="33.7" fill="#FCFCFC" width="269" height="412.7"/>
		<g>
			<path fill="#262626" d="M157.1,327.4c0-7.6-0.3-15.4-0.3-23H118v32.1h42C158.2,334.2,157.1,331.3,157.1,327.4z"/>
			<path fill="#4C4C4C" d="M258.3,240.8c-6,7.6-13.8,12.8-24.3,13.6c-1,0-2.1,0-3.1,0c-5.2,0.5-10.4,0.3-15.7-1.6
				c-6.5-2.3-11.5-6.5-14.9-11.7h-5c-0.3,0.5-0.8,1-1,1.3c-10.4,12.3-27.4,17.5-43,13.6c-9.7-2.3-15.9-8.1-21.4-15.1h-11.7v33.4
				h50.6h0.3h16.4c1.6,0,2.1,1.8,1,2.9c0.5,0.8,0.8,1.8,0.8,2.6c0,3.1,0.5,6.5-0.3,9.4c0,0.3,0,0.3,0,0.5c-0.5,12.5,0,25,0,37.6
				c0,3.7-1,6.8-2.9,9.1H281v-95.5H258.3z"/>
			<ellipse fill="#4C4C4C" cx="154" cy="181.6" rx="36.8" ry="66.3"/>
			<ellipse fill="#4C4C4C" cx="173" cy="181.6" rx="36.8" ry="66.3"/>
			<ellipse fill="#4C4C4C" cx="221.3" cy="189.9" rx="31.3" ry="55.8"/>
			<ellipse fill="#4C4C4C" cx="237.5" cy="189.9" rx="31.3" ry="55.8"/>
			<rect x="283.6" y="273.1" fill="#4C4C4C" width="20.1" height="25.6"/>
			<rect x="55.6" y="277.3" fill="#4C4C4C" width="124.7" height="74.6"/>
			<g>
				<ellipse fill="#FCFCFC" cx="171.2" cy="151.3" rx="8.6" ry="15.4"/>
				<ellipse fill="#FCFCFC" cx="188.2" cy="184.4" rx="8.6" ry="15.4"/>
				<ellipse fill="#FCFCFC" cx="171.2" cy="213.9" rx="8.6" ry="15.4"/>
				<ellipse fill="#FCFCFC" cx="156.6" cy="183.9" rx="8.3" ry="14.9"/>
			</g>
			<circle fill="#FCFCFC" cx="124.2" cy="314.9" r="19.3"/>
			<g>
				<ellipse fill="#FCFCFC" cx="238" cy="163.8" rx="6.8" ry="12.3"/>
				<ellipse fill="#FCFCFC" cx="251.5" cy="190.4" rx="6.8" ry="12.3"/>
				<ellipse fill="#FCFCFC" cx="238" cy="214.2" rx="6.8" ry="12.3"/>
				<ellipse fill="#FCFCFC" cx="226.2" cy="189.9" rx="6.5" ry="12"/>
			</g>
			<polygon fill="#262626" points="194.9,241.3 197.8,237.9 200.9,241.3 			"/>
			<polygon fill="#4C4C4C" points="118,274.4 183.7,274.4 183.7,336.5 191.5,336.5 191.5,272.1 118,272.1 			"/>
		</g>
	</g>
</g>
</svg>
