<?xml version="1.0" encoding="utf-8"?>
<!-- Generator: Adobe Illustrator 18.1.1, SVG Export Plug-In . SVG Version: 6.00 Build 0)  -->
<!DOCTYPE svg PUBLIC "-//W3C//DTD SVG 1.1//EN" "http://www.w3.org/Graphics/SVG/1.1/DTD/svg11.dtd">
<svg version="1.1" id="Layer_1" xmlns="http://www.w3.org/2000/svg" xmlns:xlink="http://www.w3.org/1999/xlink" x="0px" y="0px"
	 viewBox="0 0 360 360" enable-background="new 0 0 360 360" xml:space="preserve">
<g>
	<rect y="80.7" fill="#4C4C4C" width="360" height="198.1"/>
	<path fill="#262626" d="M84.6,167.4l-0.2-0.3L84.6,167.4z"/>
	<polygon fill="#F9F9F9" points="89.4,178.3 88.2,175.6 82.5,181.3 	"/>
	<g>
		<rect x="19.8" y="94.5" fill="#FCFCFC" width="111" height="170.3"/>
		<g>
			<polygon fill="#4C4C4C" points="34.6,223.9 118.1,223.9 75.9,181.7 			"/>
			<polygon fill="#4C4C4C" points="64.3,187.2 35.1,216.4 35.1,174.8 			"/>
			<polyline fill="#4C4C4C" points="117,174.8 87.7,187.2 117,216.4 			"/>
			<polygon fill="#4C4C4C" points="35.1,170.5 76.8,128.9 117.8,169.8 86,181.7 76.4,174.8 66.6,181.7 			"/>
		</g>
	</g>
	<g>
		<rect x="145.2" y="169" fill="none" width="205.6" height="66.9"/>
		
			<text transform="matrix(1 0 0 1 145.1929 212.9317)" fill="#FCFCFC" font-family="'Avenir-Heavy'" font-size="37.3937" letter-spacing="5">CHARLES</text>
		<rect x="145.2" y="130.3" fill="none" width="215.8" height="72.2"/>
		
			<text transform="matrix(1 0 0 1 145.1895 177.5937)" fill="#FCFCFC" font-family="'Avenir-Book'" font-size="40.3793" letter-spacing="6">TALK TO</text>
	</g>
</g>
</svg>
