<?xml version="1.0" encoding="utf-8"?>
<!-- Generator: Adobe Illustrator 18.1.1, SVG Export Plug-In . SVG Version: 6.00 Build 0)  -->
<!DOCTYPE svg PUBLIC "-//W3C//DTD SVG 1.1//EN" "http://www.w3.org/Graphics/SVG/1.1/DTD/svg11.dtd">
<svg version="1.1" id="Layer_1" xmlns="http://www.w3.org/2000/svg" xmlns:xlink="http://www.w3.org/1999/xlink" x="0px" y="0px"
	 viewBox="0 0 334.4 184" enable-background="new 0 0 334.4 184" xml:space="preserve">
<g>
	<rect x="0" y="0" fill="#4C4C4C" width="334.4" height="184"/>
	<g>
		<rect x="145.1" y="87.9" fill="none" width="165.5" height="40.9"/>
		
			<text transform="matrix(1 0 0 1 145.0959 126.9411)" fill="#FCFCFC" font-family="'Avenir-Heavy'" font-size="42.3698" letter-spacing="7">VIDEO</text>
		<rect x="146" y="44.5" fill="none" width="164.7" height="57.4"/>
		
			<text transform="matrix(1 0 0 1 146.0402 89.967)" fill="#FCFCFC" font-family="'Avenir-Book'" font-size="38.7183" letter-spacing="6">FILM &amp;</text>
	</g>
	<g>
		<rect x="17.5" y="12.9" fill="#FCFCFC" width="103.1" height="158.2"/>
		<g>
			<path fill="#262626" d="M60.1,125.5c0-2.9-0.1-5.9-0.1-8.8H45.1V129h16.1C60.5,128.1,60.1,127,60.1,125.5z"/>
			<path fill="#4C4C4C" d="M98.9,92.3c-2.3,2.9-5.3,4.9-9.3,5.2c-0.4,0-0.8,0-1.2,0c-2,0.2-4,0.1-6-0.6c-2.5-0.9-4.4-2.5-5.7-4.5
				h-1.9c-0.1,0.2-0.3,0.4-0.4,0.5c-4,4.7-10.5,6.7-16.5,5.2c-3.7-0.9-6.1-3.1-8.2-5.8h-4.5v12.8h19.4c0,0,0.1,0,0.1,0H71
				c0.6,0,0.8,0.7,0.4,1.1c0.2,0.3,0.3,0.7,0.3,1c0,1.2,0.2,2.5-0.1,3.6c0,0.1,0,0.1,0,0.2c-0.2,4.8,0,9.6,0,14.4
				c0,1.4-0.4,2.6-1.1,3.5h37.1V92.3H98.9z"/>
			<ellipse fill="#4C4C4C" cx="58.9" cy="69.6" rx="14.1" ry="25.4"/>
			<ellipse fill="#4C4C4C" cx="66.2" cy="69.6" rx="14.1" ry="25.4"/>
			<ellipse fill="#4C4C4C" cx="84.7" cy="72.8" rx="12" ry="21.4"/>
			<ellipse fill="#4C4C4C" cx="90.9" cy="72.8" rx="12" ry="21.4"/>
			<rect x="108.6" y="104.7" fill="#4C4C4C" width="7.7" height="9.8"/>
			<rect x="21.2" y="106.3" fill="#4C4C4C" width="47.8" height="28.6"/>
			<g>
				<ellipse fill="#FCFCFC" cx="65.5" cy="58" rx="3.3" ry="5.9"/>
				<ellipse fill="#FCFCFC" cx="72" cy="70.7" rx="3.3" ry="5.9"/>
				<ellipse fill="#FCFCFC" cx="65.5" cy="82" rx="3.3" ry="5.9"/>
				<ellipse fill="#FCFCFC" cx="59.9" cy="70.5" rx="3.2" ry="5.7"/>
			</g>
			<circle fill="#FCFCFC" cx="47.5" cy="120.7" r="7.4"/>
			<g>
				<ellipse fill="#FCFCFC" cx="91.1" cy="62.8" rx="2.6" ry="4.7"/>
				<ellipse fill="#FCFCFC" cx="96.3" cy="73" rx="2.6" ry="4.7"/>
				<ellipse fill="#FCFCFC" cx="91.1" cy="82.1" rx="2.6" ry="4.7"/>
				<ellipse fill="#FCFCFC" cx="86.6" cy="72.8" rx="2.5" ry="4.6"/>
			</g>
			<polygon fill="#262626" points="74.6,92.5 75.7,91.2 76.9,92.5 			"/>
			<polygon fill="#4C4C4C" points="45.1,105.2 70.3,105.2 70.3,129 73.3,129 73.3,104.3 45.1,104.3 			"/>
		</g>
	</g>
</g>
</svg>
