<?xml version="1.0" encoding="utf-8"?>
<!-- Generator: Adobe Illustrator 18.1.1, SVG Export Plug-In . SVG Version: 6.00 Build 0)  -->
<!DOCTYPE svg PUBLIC "-//W3C//DTD SVG 1.1//EN" "http://www.w3.org/Graphics/SVG/1.1/DTD/svg11.dtd">
<svg version="1.1" id="Layer_1" xmlns="http://www.w3.org/2000/svg" xmlns:xlink="http://www.w3.org/1999/xlink" x="0px" y="0px"
	 viewBox="0 0 334.4 184" enable-background="new 0 0 334.4 184" xml:space="preserve">
<g>
	<rect x="0" y="0" fill="#4C4C4C" width="334.4" height="184"/>
	<rect x="145.1" y="89" fill="none" width="162.8" height="37.1"/>
	
		<text transform="matrix(1 0 0 1 145.1183 124.4514)" fill="#FCFCFC" font-family="'Avenir-Heavy'" font-size="38.4389" letter-spacing="6">ABOUT</text>
	<rect x="144.4" y="56.3" fill="none" width="160.8" height="39.9"/>
	
		<text transform="matrix(1 0 0 1 144.3752 87.9646)" fill="#FCFCFC" font-family="'Avenir-Book'" font-size="26.9513" letter-spacing="4">CD ALLEN</text>
	<rect x="17.5" y="12.9" fill="#FCFCFC" width="103.1" height="158.2"/>
	<polygon fill="#4C4C4C" points="40.4,13.6 48.9,18.5 72.4,41 83.4,47.5 86.4,61 66.9,72 46.9,64 17.7,59.5 15.4,57 15.4,11 
		31.9,11 	"/>
	<polygon fill="#4C4C4C" points="28.5,81.4 39,76.9 48,81.4 38.3,87.4 	"/>
	<polyline fill="#4C4C4C" points="17.7,121.2 19.6,123.2 22.9,121.2 39.4,128 26.4,135.5 16.6,135.5 16.6,121.2 	"/>
	<polygon fill="#4C4C4C" points="28,138 24.4,141 28,150.2 34.1,160.5 18.8,170.7 9.2,161.6 15.4,143.5 9.4,138 	"/>
	<polygon fill="#4C4C4C" points="19.6,115 19.6,121.2 24.4,118.1 41.1,126.7 36.4,120.9 22.6,113.7 	"/>
	<polygon fill="#4C4C4C" points="18.8,115 18.8,121.2 16.6,120.2 16.6,113.7 	"/>
	<polygon fill="#4C4C4C" points="21.1,110.6 31.4,105 30.4,110.6 	"/>
	<polygon fill="#4C4C4C" points="62.9,70.4 65,82.1 71.7,77 67.3,68.6 	"/>
	<polygon fill="#4C4C4C" points="65,75 65,94.6 58,121.2 62.9,121.2 65,105 67.3,92.7 67.3,75 	"/>
	<polygon fill="#4C4C4C" points="69.2,78.9 73,92.7 69.2,108.2 64.3,110.6 64.3,108.2 68.7,106.6 71.5,92.7 67.8,78.9 	"/>
	<polygon fill="#4C4C4C" points="59.9,120.2 53.4,138 41.1,152 30.4,157.7 31.4,158.8 41.9,153.1 54.4,138.6 60.8,120.2 	"/>
	<polygon fill="#4C4C4C" points="54.6,138 52.5,153.3 60.8,175 59,175 51.4,153.6 53.4,138 	"/>
	<polygon fill="#4C4C4C" points="26.3,82.1 23.9,85.1 26.3,99.8 	"/>
	<polygon fill="#4C4C4C" points="26.3,76.3 28,78.9 39.4,73.8 50.9,78.9 39.4,72 28.5,76.3 	"/>
</g>
</svg>
