<?xml version="1.0" encoding="utf-8"?>
<!-- Generator: Adobe Illustrator 18.1.1, SVG Export Plug-In . SVG Version: 6.00 Build 0)  -->
<!DOCTYPE svg PUBLIC "-//W3C//DTD SVG 1.1//EN" "http://www.w3.org/Graphics/SVG/1.1/DTD/svg11.dtd">
<svg version="1.1" id="Layer_1" xmlns="http://www.w3.org/2000/svg" xmlns:xlink="http://www.w3.org/1999/xlink" x="0px" y="0px"
	 viewBox="0 0 334.4 184" enable-background="new 0 0 334.4 184" xml:space="preserve">
<g>
	<rect x="0" y="-0.2" fill="#4C4C4C" width="334.4" height="184"/>
	<polygon fill="#262626" points="78.6,80.3 78.4,80 78.6,80.3 	"/>
	<polygon fill="#F9F9F9" points="83,90.4 81.9,87.9 76.6,93.2 	"/>
	<g>
		<rect x="18.4" y="12.6" fill="#FCFCFC" width="103.1" height="158.2"/>
		<g>
			<polygon fill="#4C4C4C" points="32.1,132.8 109.7,132.8 70.5,93.6 			"/>
			<polygon fill="#4C4C4C" points="59.7,98.7 32.6,125.8 32.6,87.2 			"/>
			<polyline fill="#4C4C4C" points="108.7,87.2 81.5,98.7 108.7,125.8 			"/>
			<polygon fill="#4C4C4C" points="32.6,83.2 71.3,44.5 109.4,82.5 79.9,93.6 71,87.2 61.9,93.6 			"/>
		</g>
	</g>
	<g>
		<rect x="134.9" y="81.8" fill="none" width="191" height="62.1"/>
		
			<text transform="matrix(1 0 0 1 134.8682 122.5891)" fill="#FCFCFC" font-family="'Avenir-Heavy'" font-size="34.7346" letter-spacing="5">CHARLES</text>
		<rect x="134.9" y="45.8" fill="none" width="200.5" height="67.1"/>
		
			<text transform="matrix(1 0 0 1 134.8654 89.7644)" fill="#FCFCFC" font-family="'Avenir-Book'" font-size="37.5079" letter-spacing="6">TALK TO</text>
	</g>
</g>
</svg>
