<?xml version="1.0" encoding="utf-8"?>
<!-- Generator: Adobe Illustrator 18.1.1, SVG Export Plug-In . SVG Version: 6.00 Build 0)  -->
<!DOCTYPE svg PUBLIC "-//W3C//DTD SVG 1.1//EN" "http://www.w3.org/Graphics/SVG/1.1/DTD/svg11.dtd">
<svg version="1.1" id="Layer_1" xmlns="http://www.w3.org/2000/svg" xmlns:xlink="http://www.w3.org/1999/xlink" x="0px" y="0px"
	 viewBox="0 0 873 480" enable-background="new 0 0 873 480" xml:space="preserve">
<g>
	<rect x="0.3" y="0" fill="#4C4C4C" width="872.3" height="480"/>
	<rect x="378.8" y="232.2" fill="none" width="424.7" height="96.8"/>
	<g enable-background="new    ">
		<path fill="#FCFCFC" d="M409.8,253.7h10.9l30.6,71h-14.4l-6.6-16.2h-30.8l-6.4,16.2h-14.1L409.8,253.7z M425.8,297.6l-10.9-28.9
			l-11.1,28.9H425.8z"/>
		<path fill="#FCFCFC" d="M474.9,253.7h27.7c2.7,0,5.3,0.3,7.9,1c2.6,0.6,4.9,1.7,7,3.1c2,1.4,3.7,3.3,5,5.6c1.3,2.3,1.9,5,1.9,8.2
			c0,4-1.1,7.3-3.4,9.9c-2.3,2.6-5.2,4.5-8.9,5.6v0.2c2.2,0.3,4.3,0.9,6.2,1.9c1.9,1,3.5,2.2,4.9,3.7c1.3,1.5,2.4,3.2,3.2,5.2
			c0.8,2,1.2,4.1,1.2,6.4c0,3.9-0.8,7.1-2.3,9.7c-1.5,2.6-3.6,4.6-6.1,6.2c-2.5,1.6-5.4,2.7-8.6,3.4c-3.2,0.7-6.5,1-9.9,1h-25.6
			V253.7z M487.5,282.5H499c4.2,0,7.4-0.8,9.5-2.5c2.1-1.6,3.2-3.8,3.2-6.5c0-3.1-1.1-5.4-3.3-6.9c-2.2-1.5-5.7-2.3-10.5-2.3h-10.4
			V282.5z M487.5,313.8h11.6c1.6,0,3.3-0.1,5.2-0.3c1.8-0.2,3.5-0.7,5.1-1.4c1.5-0.7,2.8-1.8,3.8-3.2c1-1.4,1.5-3.2,1.5-5.6
			c0-3.7-1.2-6.3-3.7-7.8c-2.4-1.5-6.2-2.2-11.4-2.2h-12.1V313.8z"/>
		<path fill="#FCFCFC" d="M551.7,289.5c0-5.7,0.9-10.8,2.8-15.5c1.9-4.6,4.5-8.6,7.8-11.9c3.3-3.3,7.3-5.8,11.8-7.6
			c4.6-1.8,9.6-2.7,15.1-2.7c5.5-0.1,10.6,0.8,15.2,2.5c4.6,1.7,8.6,4.2,11.9,7.5c3.3,3.3,5.9,7.2,7.8,11.8
			c1.9,4.6,2.8,9.8,2.8,15.4c0,5.5-0.9,10.6-2.8,15.1c-1.9,4.5-4.5,8.5-7.8,11.7c-3.3,3.3-7.3,5.8-11.9,7.7
			c-4.6,1.8-9.7,2.8-15.2,2.9c-5.5,0-10.5-0.9-15.1-2.7c-4.6-1.8-8.5-4.3-11.8-7.5c-3.3-3.2-5.9-7.1-7.8-11.7
			C552.6,300.1,551.7,295,551.7,289.5z M564.9,288.7c0,3.8,0.6,7.3,1.8,10.5c1.2,3.2,2.8,6,5,8.3c2.1,2.3,4.7,4.2,7.7,5.5
			c3,1.3,6.3,2,10,2c3.7,0,7-0.7,10-2c3-1.3,5.6-3.2,7.7-5.5c2.1-2.3,3.8-5.1,5-8.3c1.2-3.2,1.8-6.7,1.8-10.5c0-3.5-0.6-6.9-1.8-9.9
			c-1.2-3.1-2.8-5.8-5-8.1c-2.1-2.3-4.7-4.1-7.7-5.4c-3-1.3-6.4-2-10-2c-3.7,0-7,0.7-10,2c-3,1.3-5.5,3.1-7.7,5.4
			c-2.1,2.3-3.8,5-5,8.1C565.5,281.8,564.9,285.1,564.9,288.7z"/>
		<path fill="#FCFCFC" d="M711.5,298.6c0,4.3-0.7,8.1-2.2,11.6c-1.5,3.4-3.5,6.4-6,8.8c-2.5,2.4-5.5,4.3-9,5.6
			c-3.5,1.3-7.3,2-11.3,2c-4.1,0-7.9-0.7-11.3-2c-3.5-1.3-6.5-3.2-9.1-5.6c-2.6-2.4-4.6-5.3-6-8.8c-1.4-3.4-2.2-7.3-2.2-11.6v-44.9
			H667v44.5c0,1.7,0.3,3.6,0.8,5.5c0.5,1.9,1.4,3.7,2.7,5.3c1.2,1.6,2.9,2.9,4.9,4c2,1,4.6,1.6,7.6,1.6c3,0,5.5-0.5,7.6-1.6
			c2-1,3.7-2.4,4.9-4c1.2-1.6,2.1-3.4,2.7-5.3c0.5-1.9,0.8-3.7,0.8-5.5v-44.5h12.6V298.6z"/>
		<path fill="#FCFCFC" d="M757.2,265.1h-21.8v-11.4h56.2v11.4h-21.8v59.6h-12.6V265.1z"/>
	</g>
	<rect x="377" y="146.9" fill="none" width="419.5" height="104.1"/>
	<g enable-background="new    ">
		<path fill="#FCFCFC" d="M424.7,221.6c-0.8,1.3-1.9,2.5-3.1,3.6c-1.2,1.1-2.7,2.1-4.3,2.9c-1.6,0.8-3.3,1.5-5.2,1.9
			c-1.9,0.5-3.8,0.7-5.9,0.7c-3.7,0-7.1-0.7-10.3-2c-3.2-1.3-5.9-3.1-8.2-5.4c-2.3-2.3-4.1-5.1-5.4-8.3c-1.3-3.2-2-6.7-2-10.5
			c0-3.8,0.7-7.3,2-10.5c1.3-3.2,3.1-5.9,5.4-8.3c2.3-2.3,5.1-4.1,8.2-5.4c3.2-1.3,6.6-2,10.3-2c3.1,0,6.2,0.6,9.3,1.8
			c3.1,1.2,5.7,3.2,7.9,6l-4.4,3.3c-0.5-0.8-1.2-1.6-2.1-2.4c-0.9-0.8-1.9-1.5-3.1-2.1c-1.1-0.6-2.4-1.1-3.7-1.5
			c-1.3-0.4-2.6-0.6-3.9-0.6c-3.2,0-6,0.6-8.6,1.8c-2.5,1.2-4.7,2.7-6.4,4.7c-1.8,2-3.1,4.3-4,6.9c-0.9,2.6-1.4,5.3-1.4,8.2
			c0,2.9,0.5,5.6,1.4,8.2c0.9,2.6,2.3,4.9,4,6.9c1.8,2,3.9,3.5,6.4,4.7c2.5,1.2,5.4,1.8,8.6,1.8c1.3,0,2.6-0.1,3.9-0.4
			c1.3-0.2,2.6-0.6,3.8-1.2c1.2-0.6,2.4-1.3,3.5-2.3c1.1-1,2.1-2.2,3.1-3.6L424.7,221.6z"/>
		<path fill="#FCFCFC" d="M442.9,179.7h16.5c3.1,0,6.2,0.5,9.3,1.5c3.1,1,5.9,2.6,8.4,4.7c2.5,2.1,4.5,4.7,6.1,7.8
			c1.5,3.1,2.3,6.7,2.3,10.9c0,4.2-0.8,7.8-2.3,10.9s-3.6,5.7-6.1,7.8c-2.5,2.1-5.3,3.6-8.4,4.7c-3.1,1-6.2,1.5-9.3,1.5h-16.5V179.7
			z M448,224.8h9.8c3.8,0,7.1-0.6,9.9-1.7c2.8-1.1,5.1-2.7,7-4.6c1.9-1.9,3.2-4.1,4.1-6.5c0.9-2.4,1.3-4.9,1.3-7.5
			c0-2.6-0.4-5.1-1.3-7.5c-0.9-2.4-2.3-4.6-4.1-6.5c-1.9-1.9-4.2-3.4-7-4.6c-2.8-1.1-6.1-1.7-9.9-1.7H448V224.8z"/>
		<path fill="#FCFCFC" d="M535.2,229.5h-5.9l21.7-49.8h4.9l21.7,49.8h-5.9l-5.5-13.1h-25.5L535.2,229.5z M542.6,211.8h21.6
			l-10.8-26.2L542.6,211.8z"/>
		<path fill="#FCFCFC" d="M599.8,224.8H623v4.6h-28.3v-49.8h5.1V224.8z"/>
		<path fill="#FCFCFC" d="M645.3,224.8h23.2v4.6h-28.3v-49.8h5.1V224.8z"/>
		<path fill="#FCFCFC" d="M690.9,224.8h26.6v4.6h-31.7v-49.8h30.9v4.6h-25.8v16.9H715v4.6h-24.1V224.8z"/>
		<path fill="#FCFCFC" d="M773.9,221.9h0.1v-42.2h5.1v49.8h-6.3l-29.7-42.6H743v42.6h-5.1v-49.8h6.3L773.9,221.9z"/>
	</g>
	<rect x="46" y="33.7" fill="#FCFCFC" width="269" height="412.7"/>
	<polygon fill="#4C4C4C" points="105.7,35.5 127.9,48.3 189.2,107 217.9,123.9 225.7,159.1 174.8,187.8 122.7,167 46.5,155.2 
		40.5,148.7 40.5,28.7 83.5,28.7 	"/>
	<polygon fill="#4C4C4C" points="74.7,212.3 102.1,200.6 125.5,212.3 100.2,228 	"/>
	<polyline fill="#4C4C4C" points="46.5,316.2 51.5,321.4 60.1,316.2 103.1,333.9 69.2,353.5 43.6,353.5 43.6,316.2 	"/>
	<polygon fill="#4C4C4C" points="73.4,360 64,367.8 73.4,391.8 89.3,418.7 49.4,445.3 24.3,421.6 40.5,374.3 24.8,360 	"/>
	<polygon fill="#4C4C4C" points="51.5,300 51.5,316.2 64,308.1 107.5,330.5 95.3,315.4 59.3,296.6 	"/>
	<polygon fill="#4C4C4C" points="49.4,300 49.4,316.2 43.6,313.6 43.6,296.6 	"/>
	<polygon fill="#4C4C4C" points="55.4,288.5 82.2,273.9 79.6,288.5 	"/>
	<polygon fill="#4C4C4C" points="164.4,183.7 169.9,214.2 187.4,200.9 175.9,179 	"/>
	<polygon fill="#4C4C4C" points="169.9,195.7 169.9,246.8 151.6,316.2 164.4,316.2 169.9,273.9 175.9,241.8 175.9,195.7 	"/>
	<polygon fill="#4C4C4C" points="180.8,205.8 190.8,241.8 180.8,282.3 168.1,288.5 168.1,282.3 179.5,278.1 186.8,241.8 
		177.2,205.8 	"/>
	<polygon fill="#4C4C4C" points="156.6,313.6 139.6,360 107.5,396.5 79.6,411.4 82.2,414.3 109.6,399.4 142.2,361.6 158.9,313.6 	
		"/>
	<polygon fill="#4C4C4C" points="142.8,360 137.3,399.9 158.9,456.5 154.2,456.5 134.4,400.7 139.6,360 	"/>
	<polygon fill="#4C4C4C" points="68.9,214.2 62.7,222 68.9,260.3 	"/>
	<polygon fill="#4C4C4C" points="68.9,199 73.4,205.8 103.1,192.5 133.1,205.8 103.1,187.8 74.7,199 	"/>
</g>
</svg>
