<?xml version="1.0" encoding="utf-8"?>
<!-- Generator: Adobe Illustrator 18.1.1, SVG Export Plug-In . SVG Version: 6.00 Build 0)  -->
<!DOCTYPE svg PUBLIC "-//W3C//DTD SVG 1.1//EN" "http://www.w3.org/Graphics/SVG/1.1/DTD/svg11.dtd">
<svg version="1.1" id="Layer_1" xmlns="http://www.w3.org/2000/svg" xmlns:xlink="http://www.w3.org/1999/xlink" x="0px" y="0px"
	 viewBox="0 0 873 480" enable-background="new 0 0 873 480" xml:space="preserve">
<g>
	<rect x="0.3" y="-0.5" fill="#4C4C4C" width="872.3" height="480"/>
	<path fill="#262626" d="M205.4,209.5l-0.5-0.8L205.4,209.5z"/>
	<polygon fill="#F9F9F9" points="216.8,235.8 214,229.3 200.2,243.1 	"/>
	<g>
		<rect x="48.3" y="32.9" fill="#FCFCFC" width="269" height="412.7"/>
		<g>
			<polygon fill="#4C4C4C" points="84.1,346.4 286.5,346.4 184.2,244.2 			"/>
			<polygon fill="#4C4C4C" points="156.1,257.5 85.4,328.2 85.4,227.5 			"/>
			<polyline fill="#4C4C4C" points="283.9,227.5 212.9,257.5 283.9,328.2 			"/>
			<polygon fill="#4C4C4C" points="85.4,217 186.3,116.1 285.7,215.2 208.8,244.2 185.5,227.5 161.8,244.2 			"/>
		</g>
	</g>
	<g>
		<rect x="352.2" y="213.4" fill="none" width="498.3" height="162"/>
		<g enable-background="new    ">
			<path fill="#FCFCFC" d="M403.4,270.7c-2.4-2.5-4.6-4.2-6.8-5.1c-2.2-0.8-4.4-1.3-6.7-1.3c-3.3,0-6.3,0.6-9,1.8
				c-2.7,1.2-5,2.8-6.9,4.9c-1.9,2.1-3.4,4.5-4.5,7.3c-1.1,2.8-1.6,5.8-1.6,9c0,3.4,0.5,6.6,1.6,9.5c1.1,2.9,2.6,5.4,4.5,7.5
				c1.9,2.1,4.2,3.8,6.9,5c2.7,1.2,5.7,1.8,9,1.8c2.6,0,5.1-0.6,7.6-1.9c2.4-1.2,4.7-3.2,6.8-5.9l9.4,6.7c-2.9,4-6.4,6.9-10.6,8.7
				c-4.2,1.8-8.6,2.7-13.3,2.7c-5,0-9.5-0.8-13.6-2.4c-4.1-1.6-7.7-3.9-10.7-6.8c-3-2.9-5.3-6.4-7-10.6c-1.7-4.1-2.5-8.7-2.5-13.7
				c0-5.1,0.8-9.8,2.5-14c1.7-4.2,4-7.8,7-10.7c3-3,6.6-5.2,10.7-6.8c4.1-1.6,8.7-2.4,13.6-2.4c4.3,0,8.4,0.8,12.1,2.3
				s7.2,4.2,10.4,7.8L403.4,270.7z"/>
			<path fill="#FCFCFC" d="M434.3,255.6h11.4v25.6h30v-25.6h11.4v64.2h-11.4v-28.3h-30v28.3h-11.4V255.6z"/>
			<path fill="#FCFCFC" d="M535.2,255.6h9.9l27.6,64.2h-13l-6-14.7h-27.8l-5.8,14.7h-12.8L535.2,255.6z M549.7,295.3l-9.9-26.1
				l-10.1,26.1H549.7z"/>
			<path fill="#FCFCFC" d="M592.8,255.6h22.3c3.1,0,6.1,0.3,8.9,0.9c2.9,0.6,5.4,1.6,7.7,2.9c2.2,1.4,4,3.3,5.3,5.6
				c1.3,2.4,2,5.3,2,9c0,4.7-1.3,8.5-3.9,11.7c-2.6,3.1-6.2,5-11,5.7l17,28.4h-13.8l-14.9-27.2h-8.3v27.2h-11.4V255.6z M613.1,282.8
				c1.6,0,3.3-0.1,4.9-0.2c1.6-0.2,3.1-0.5,4.5-1.1s2.5-1.5,3.3-2.6c0.8-1.2,1.3-2.8,1.3-4.9c0-1.9-0.4-3.4-1.2-4.5
				c-0.8-1.1-1.8-2-3.1-2.6c-1.3-0.6-2.7-1-4.2-1.1c-1.5-0.2-3-0.3-4.5-0.3h-9.9v17.4H613.1z"/>
			<path fill="#FCFCFC" d="M662.9,255.6h11.4v53.8h27.3v10.3h-38.7V255.6z"/>
			<path fill="#FCFCFC" d="M722.8,255.6h42.5V266h-31.1v15.8h29.4v10.3h-29.4v17.4H767v10.3h-44.1V255.6z"/>
			<path fill="#FCFCFC" d="M822.6,269.4c-1.2-1.8-2.8-3-4.8-3.9c-2-0.8-4.2-1.2-6.4-1.2c-1.3,0-2.6,0.2-3.9,0.5
				c-1.2,0.3-2.4,0.8-3.4,1.5c-1,0.7-1.8,1.5-2.4,2.6c-0.6,1.1-0.9,2.3-0.9,3.8c0,2.2,0.8,3.8,2.3,5c1.5,1.1,3.4,2.1,5.6,3
				c2.2,0.8,4.7,1.7,7.3,2.4s5.1,1.9,7.3,3.3c2.2,1.4,4.1,3.2,5.6,5.5c1.5,2.3,2.3,5.3,2.3,9.2c0,3.4-0.6,6.4-1.9,9
				c-1.3,2.6-3,4.7-5.1,6.4c-2.1,1.7-4.6,3-7.5,3.8c-2.8,0.8-5.8,1.3-9,1.3c-4,0-7.8-0.7-11.5-2c-3.7-1.3-6.9-3.6-9.5-6.7l8.6-8.3
				c1.4,2.1,3.2,3.8,5.5,4.9c2.3,1.2,4.7,1.8,7.2,1.8c1.3,0,2.7-0.2,4-0.5c1.3-0.4,2.5-0.9,3.6-1.6c1.1-0.7,2-1.6,2.6-2.8
				c0.7-1.1,1-2.4,1-3.9c0-2.4-0.8-4.2-2.3-5.4c-1.5-1.3-3.4-2.3-5.6-3.2c-2.2-0.9-4.7-1.7-7.3-2.5c-2.7-0.8-5.1-1.9-7.3-3.2
				c-2.2-1.4-4.1-3.2-5.6-5.4c-1.5-2.3-2.3-5.3-2.3-9.1c0-3.3,0.7-6.2,2-8.6c1.4-2.4,3.1-4.4,5.3-6c2.2-1.6,4.7-2.8,7.6-3.6
				c2.8-0.8,5.7-1.2,8.7-1.2c3.4,0,6.7,0.5,9.8,1.5c3.2,1,6,2.7,8.6,5.1L822.6,269.4z"/>
		</g>
		<rect x="352.2" y="119.5" fill="none" width="523" height="175"/>
		<g enable-background="new    ">
			<path fill="#FCFCFC" d="M383.8,234.2h-7v-62.8h-23.2v-6.5h53.4v6.5h-23.2V234.2z"/>
			<path fill="#FCFCFC" d="M425.4,234.2h-8.2l30.1-69.3h6.8l30.1,69.3h-8.2l-7.6-18.2h-35.4L425.4,234.2z M435.7,209.5h30l-15-36.4
				L435.7,209.5z"/>
			<path fill="#FCFCFC" d="M516.3,227.7h32.3v6.5h-39.3v-69.3h7V227.7z"/>
			<path fill="#FCFCFC" d="M580.8,194.9L580.8,194.9h1l32.6-30h10.1l-34.9,31.4l36.9,37.9H616L582,198.5h-1.1h-0.1v35.7h-7v-69.3h7
				V194.9z"/>
			<path fill="#FCFCFC" d="M715.9,234.2h-7v-62.8h-23.2v-6.5h53.4v6.5h-23.2V234.2z"/>
			<path fill="#FCFCFC" d="M833,199.5c0,5.3-0.9,10.1-2.7,14.6c-1.8,4.4-4.4,8.3-7.6,11.5c-3.2,3.2-7,5.8-11.4,7.6
				c-4.4,1.8-9.2,2.7-14.3,2.7c-5.2,0-9.9-0.9-14.3-2.7c-4.4-1.8-8.2-4.4-11.4-7.6s-5.8-7.1-7.6-11.5c-1.8-4.4-2.7-9.3-2.7-14.6
				s0.9-10.1,2.7-14.6c1.8-4.4,4.4-8.3,7.6-11.5s7-5.8,11.4-7.6c4.4-1.8,9.2-2.7,14.3-2.7c5.2,0,9.9,0.9,14.3,2.7
				c4.4,1.8,8.2,4.4,11.4,7.6c3.2,3.2,5.8,7.1,7.6,11.5C832,189.4,833,194.2,833,199.5z M825.3,199.5c0-4-0.7-7.8-2-11.4
				c-1.3-3.6-3.2-6.8-5.6-9.5c-2.4-2.7-5.4-4.9-9-6.6c-3.5-1.6-7.5-2.4-11.9-2.4c-4.4,0-8.4,0.8-11.9,2.4c-3.5,1.6-6.5,3.8-9,6.6
				c-2.4,2.7-4.3,5.9-5.6,9.5c-1.3,3.6-2,7.4-2,11.4c0,4,0.7,7.8,2,11.4c1.3,3.6,3.2,6.8,5.6,9.5s5.4,4.9,9,6.6
				c3.5,1.6,7.5,2.4,11.9,2.4c4.4,0,8.4-0.8,11.9-2.4c3.5-1.6,6.5-3.8,9-6.6s4.3-5.9,5.6-9.5C824.7,207.3,825.3,203.5,825.3,199.5z"
				/>
		</g>
	</g>
</g>
</svg>
